<?xml version="1.0" encoding="UTF-8"?>
<svg width="176px" height="176px" viewBox="0 0 176 176" version="1.1" xmlns="http://www.w3.org/2000/svg" xmlns:xlink="http://www.w3.org/1999/xlink" style="background: #FFFFFF;">
    <title>icon@128w</title>
    <g id="Page-1" stroke="none" stroke-width="1" fill="none" fill-rule="evenodd">
        <g id="Artboard" transform="translate(-20.000000, -17.000000)" fill="#3D3D3D">
            <path d="M90.7574788,27 C96.3540706,27 98.0109181,33.0437459 95.7280213,45.1312376 L95.7279839,45.1312305 C95.6380284,45.6075277 95.9025972,46.0797615 96.3557674,46.2517727 C100.818159,47.9455765 105.48443,50.4417939 110.354578,53.7404249 C115.200924,57.0229338 123.716481,64.7965946 135.90125,77.0614074 L136.449285,77.6135827 C136.838154,78.0057591 137.471316,78.0084407 137.863493,77.6195721 C138.065657,77.4191127 138.172794,77.1419866 138.158045,76.8576682 C136.479172,44.4938548 136.525122,29.7189316 138.295895,32.5328987 C141.697437,35.4088275 147.588074,55.7273941 155.967806,93.4885985 L156.222499,94.6382165 C158.327542,111.645635 156.621427,122.753951 151.104155,127.963165 C143.540772,130.12162 133.023299,130.97195 119.551735,130.514158 C117.895844,130.457901 116.507862,131.754649 116.451592,133.41054 C116.432959,133.958842 116.565037,134.501756 116.833459,134.980224 L135.345381,167.978224 C137.507103,171.831552 136.135785,176.707714 132.282457,178.869436 C131.092988,179.53673 129.752669,179.888848 128.388812,179.892342 L118.865864,179.916744 C115.978302,179.924143 113.310839,178.374873 111.886435,175.863071 L88.5413067,134.696136 C87.724001,133.254894 85.8930867,132.749094 84.451845,133.5664 C83.5084342,134.101393 82.9272297,135.10392 82.9317338,136.188458 L83.0798251,171.846985 C83.0981742,176.265225 79.531358,179.861791 75.1131181,179.88014 L75.1026008,179.880177 L75.1026008,179.880177 L66.0227067,179.905949 C61.6044465,179.918489 58.0125728,176.346948 58.0000322,171.928688 L58,53.0146873 C58,46.939555 62.9248678,42.0146873 69,42.0146873 L82.0594247,42.0146873 C82.6117156,42.0146984 83.0594358,41.5669782 83.0594358,41.0146873 C83.0594358,41.0007972 83.0591464,40.9869086 83.0585678,40.9730306 C82.6701881,31.6576769 85.2364918,27 90.7574788,27 Z M106.794999,76 C92.4011604,76 85.5391227,102.728696 96.1670607,99.7715504 C102.169979,98.1012823 110.70367,97.8876081 121.768135,99.1305278 C122.402779,99.2018202 123.045268,99.1201167 123.641869,98.8922506 C125.705604,98.1040266 126.73961,95.7920572 125.951386,93.7283223 L125.951386,93.7283223 L125.756777,93.2254173 C121.254451,81.7418058 114.933858,76 106.794999,76 Z" id="Combined-Shape"></path>
        </g>
    </g>
</svg>