<?xml version="1.0" encoding="UTF-8"?>
<svg width="757px" height="204px" viewBox="0 0 757 204" version="1.1" xmlns="http://www.w3.org/2000/svg" xmlns:xlink="http://www.w3.org/1999/xlink" style="background: #FFFFFF;">
    <title>logo</title>
    <g id="Page-1" stroke="none" stroke-width="1" fill="none" fill-rule="evenodd">
        <g id="Artboard" transform="translate(-37.000000, -17.000000)" fill="#3D3D3D">
            <path d="M90.7574788,27 C96.3540706,27 98.0109181,33.0437459 95.7280213,45.1312376 L95.7279839,45.1312305 C95.6380284,45.6075277 95.9025972,46.0797615 96.3557674,46.2517727 C100.818159,47.9455765 105.48443,50.4417939 110.354578,53.7404249 C115.200924,57.0229338 123.716481,64.7965946 135.90125,77.0614074 L136.449285,77.6135827 C136.838154,78.0057591 137.471316,78.0084407 137.863493,77.6195721 C138.065657,77.4191127 138.172794,77.1419866 138.158045,76.8576682 C136.479172,44.4938548 136.525122,29.7189316 138.295895,32.5328987 C141.697437,35.4088275 147.588074,55.7273941 155.967806,93.4885985 L156.222499,94.6382165 C158.327542,111.645635 156.621427,122.753951 151.104155,127.963165 C143.540772,130.12162 133.023299,130.97195 119.551735,130.514158 C117.895844,130.457901 116.507862,131.754649 116.451592,133.41054 C116.432959,133.958842 116.565037,134.501756 116.833459,134.980224 L135.345381,167.978224 C137.507103,171.831552 136.135785,176.707714 132.282457,178.869436 C131.092988,179.53673 129.752669,179.888848 128.388812,179.892342 L118.865864,179.916744 C115.978302,179.924143 113.310839,178.374873 111.886435,175.863071 L88.5413067,134.696136 C87.724001,133.254894 85.8930867,132.749094 84.451845,133.5664 C83.5084342,134.101393 82.9272297,135.10392 82.9317338,136.188458 L83.0798251,171.846985 C83.0981742,176.265225 79.531358,179.861791 75.1131181,179.88014 L75.1026008,179.880177 L75.1026008,179.880177 L66.0227067,179.905949 C61.6044465,179.918489 58.0125728,176.346948 58.0000322,171.928688 L58,53.0146873 C58,46.939555 62.9248678,42.0146873 69,42.0146873 L82.0594247,42.0146873 C82.6117156,42.0146984 83.0594358,41.5669782 83.0594358,41.0146873 C83.0594358,41.0007972 83.0591464,40.9869086 83.0585678,40.9730306 C82.6701881,31.6576769 85.2364918,27 90.7574788,27 Z M106.794999,76 C92.4011604,76 85.5391227,102.728696 96.1670607,99.7715504 C102.169979,98.1012823 110.70367,97.8876081 121.768135,99.1305278 C122.402779,99.2018202 123.045268,99.1201167 123.641869,98.8922506 C125.705604,98.1040266 126.73961,95.7920572 125.951386,93.7283223 L125.951386,93.7283223 L125.756777,93.2254173 C121.254451,81.7418058 114.933858,76 106.794999,76 Z" id="Combined-Shape"></path>
            <path d="M254.894531,179.953125 C262.023438,179.953125 267.101562,175.363281 267.101562,167.160156 L267.101562,111.300781 C267.101562,87.5703125 253.722656,72.53125 230.871094,72.53125 C215.148438,72.53125 203.722656,79.6601562 198.15625,92.2578125 L197.667969,92.2578125 L197.667969,47.6289062 C197.667969,39.9140625 193.175781,35.1289062 185.65625,35.1289062 C178.234375,35.1289062 173.644531,39.9140625 173.644531,47.6289062 L173.644531,167.160156 C173.644531,175.363281 178.722656,179.953125 185.851562,179.953125 C192.980469,179.953125 197.960938,175.363281 197.960938,167.160156 L197.960938,118.527344 C197.960938,103.292969 206.847656,93.1367188 221.496094,93.1367188 C235.558594,93.1367188 242.785156,101.828125 242.785156,116.28125 L242.785156,167.160156 C242.785156,175.363281 247.765625,179.953125 254.894531,179.953125 Z M296.030469,59.9335938 C303.647656,59.9335938 309.604688,54.0742188 309.604688,46.75 C309.604688,39.328125 303.647656,33.5664062 296.030469,33.5664062 C288.510938,33.5664062 282.553906,39.328125 282.553906,46.75 C282.553906,54.0742188 288.510938,59.9335938 296.030469,59.9335938 Z M296.030469,179.953125 C303.452344,179.953125 308.2375,175.070312 308.2375,167.160156 L308.2375,85.3242188 C308.2375,77.4140625 303.452344,72.4335938 296.030469,72.4335938 C288.608594,72.4335938 283.921094,77.4140625 283.921094,85.2265625 L283.921094,167.160156 C283.921094,175.070312 288.608594,179.953125 296.030469,179.953125 Z M405.525781,179.953125 C412.654688,179.953125 417.635156,175.363281 417.635156,167.160156 L417.635156,111.105469 C417.635156,87.1796875 404.646875,72.53125 381.795313,72.53125 C365.877344,72.53125 355.135156,79.6601562 349.56875,91.9648438 L349.080469,91.9648438 L349.080469,84.7382812 C349.080469,77.21875 344.197656,72.4335938 337.06875,72.4335938 C329.842188,72.4335938 325.447656,77.21875 325.447656,84.7382812 L325.447656,167.160156 C325.447656,175.363281 330.428125,179.953125 337.557031,179.953125 C344.685938,179.953125 349.764063,175.363281 349.764063,167.160156 L349.764063,118.039062 C349.764063,103.195312 358.650781,93.1367188 372.615625,93.1367188 C386.482813,93.1367188 393.31875,101.339844 393.31875,115.988281 L393.31875,167.160156 C393.31875,175.363281 398.396875,179.953125 405.525781,179.953125 Z M479.669531,180.050781 C510.040625,180.050781 529.767188,159.835938 529.767188,126.242188 C529.767188,92.7460938 509.845313,72.3359375 479.669531,72.3359375 C449.49375,72.3359375 429.571875,92.84375 429.571875,126.242188 C429.571875,159.835938 449.298438,180.050781 479.669531,180.050781 Z M479.669531,160.8125 C464.239844,160.8125 454.278906,148.3125 454.278906,126.242188 C454.278906,104.269531 464.3375,91.671875 479.669531,91.671875 C495.099219,91.671875 505.060156,104.269531 505.060156,126.242188 C505.060156,148.3125 495.099219,160.8125 479.669531,160.8125 Z" id="hino" fill-rule="nonzero"></path>
            <path d="M555.917969,180.5625 C558.164062,180.5625 559.726562,178.902344 559.726562,176.460938 L559.726562,40.6210938 C559.726562,38.1796875 558.164062,36.5195312 555.917969,36.5195312 C553.671875,36.5195312 552.109375,38.1796875 552.109375,40.6210938 L552.109375,176.460938 C552.109375,178.902344 553.671875,180.5625 555.917969,180.5625 Z M620.003125,180.5625 C647.346875,180.5625 665.315625,159.957031 665.315625,128.21875 C665.315625,96.3828125 647.346875,75.875 620.003125,75.875 C592.757031,75.875 574.788281,96.3828125 574.788281,128.21875 C574.788281,160.054688 592.757031,180.5625 620.003125,180.5625 Z M620.003125,173.726562 C597.249219,173.726562 582.405469,156.148438 582.405469,128.21875 C582.405469,100.289062 597.249219,82.7109375 620.003125,82.7109375 C642.854688,82.7109375 657.698438,100.386719 657.698438,128.21875 C657.698438,156.050781 642.854688,173.726562 620.003125,173.726562 Z M719.928125,215.621564 C746.392969,215.71875 762.799219,200.582031 762.799219,177.828125 L762.799219,79.8789062 C762.799219,77.4375 761.139063,75.875 758.990625,75.875 C756.842188,75.875 755.182031,77.4375 755.182031,79.8789062 L755.182031,103.902344 L754.986719,103.902344 C750.299219,88.5703125 736.432031,75.875 717.19375,75.875 C691.900781,75.875 674.420313,96.8710938 674.420313,128.121094 C674.420313,159.273438 691.803125,180.269531 717.096094,180.269531 C736.041406,180.269531 750.494531,167.867188 754.986719,152.046875 L755.182031,152.046875 L755.182031,178.121094 C755.182031,196.675781 741.803125,209.078125 720.221094,208.980469 C703.717188,208.980469 693.170313,201.265625 688.092188,191.304688 C687.017969,189.449219 686.041406,188.667969 684.576563,188.667969 C682.330469,188.667969 680.963281,190.035156 680.963281,192.085938 C680.963281,193.257812 681.25625,194.332031 681.939844,195.503906 C687.017969,206.636719 700.396875,215.621564 719.928125,215.621564 Z M718.267969,173.433594 C696.685938,173.433594 682.0375,155.269531 682.0375,128.21875 C682.0375,100.972656 696.685938,82.7109375 718.267969,82.7109375 C739.947656,82.7109375 755.182031,101.265625 755.182031,128.121094 C755.182031,154.878906 740.045313,173.433594 718.267969,173.433594 Z" id="log" fill-rule="nonzero"></path>
        </g>
    </g>
</svg>