<?xml version="1.0" encoding="UTF-8"?>
<svg width="251px" height="236px" viewBox="0 0 251 236" version="1.1" xmlns="http://www.w3.org/2000/svg" xmlns:xlink="http://www.w3.org/1999/xlink" style="background: #FFFFFF;">
    <title>logo</title>
    <defs>
        <linearGradient x1="0%" y1="50%" x2="100%" y2="50%" id="linearGradient-1">
            <stop stop-color="#FAD961" offset="0%"></stop>
            <stop stop-color="#F76B1C" offset="100%"></stop>
        </linearGradient>
    </defs>
    <g id="Page-1" stroke="none" stroke-width="1" fill="none" fill-rule="evenodd">
        <g id="Artboard" transform="translate(-309.000000, -21.000000)">
            <g id="Path-3" transform="translate(329.015168, 38.770025)" fill="url(#linearGradient-1)">
                <path d="M1.87609697,173.671569 L58.0923892,14.0078553 L58.0923892,14.0078553 C64.514179,11.2466956 70.518112,11.2466956 76.1041883,14.0078553 C81.6902645,16.7690149 87.7769014,21.33594 94.3640988,27.7086307 L94.3640988,27.7086307 L133.04854,55.2900849 C137.09574,58.1756809 142.715882,57.2340146 145.601478,53.1868144 C145.657614,53.1080802 145.712478,53.0284465 145.766048,52.9479443 L178.136509,4.30312135 C178.442472,3.84333361 179.063236,3.71863443 179.523024,4.02459795 C179.862926,4.25078422 180.03119,4.6608895 179.948101,5.06062683 L157.274642,114.141379 C156.263089,119.007926 151.497945,122.133012 146.631398,121.121454 C145.250895,120.834504 143.957125,120.227207 142.854383,119.348519 C109.148383,92.4908845 89.205213,79.0620672 83.0248716,79.0620672 C72.751044,79.0620672 52.9976934,179 42.6354437,179 C30.3066501,179 17.9778565,179 5.64906294,179 C3.43992394,179 1.64906294,177.209139 1.64906294,175 C1.64906294,174.547536 1.7258303,174.098352 1.87609697,173.671569 Z"></path>
            </g>
            <path d="M417.225586,217.966797 C419.964844,217.966797 421.898438,215.925781 421.898438,212.97168 L421.898438,143.523438 C421.898438,140.569336 419.964844,138.52832 417.225586,138.52832 C414.486328,138.52832 412.552734,140.569336 412.552734,143.523438 L412.552734,212.97168 C412.552734,215.925781 414.486328,217.966797 417.225586,217.966797 Z M455.909922,217.966797 C471.324961,217.966797 481.744883,206.848633 481.744883,189.070312 C481.744883,171.238281 471.324961,160.173828 455.909922,160.173828 C440.441172,160.173828 430.02125,171.238281 430.02125,189.070312 C430.02125,206.848633 440.441172,217.966797 455.909922,217.966797 Z M455.909922,209.749023 C446.027109,209.749023 439.528086,202.229492 439.528086,189.070312 C439.528086,175.911133 446.027109,168.391602 455.909922,168.391602 C465.792734,168.391602 472.238047,175.911133 472.238047,189.070312 C472.238047,202.229492 465.792734,209.749023 455.909922,209.749023 Z M537.724141,215.87207 L537.724141,165.007812 C537.724141,162.107422 535.736836,160.173828 533.051289,160.173828 C530.365742,160.173828 528.378438,162.107422 528.378438,165.007812 L528.378438,170.325195 L528.217305,170.325195 C524.51125,164.041016 518.334492,160.173828 510.438984,160.173828 C495.990742,160.173828 486.645039,171.345703 486.645039,188.855469 C486.645039,206.204102 495.990742,217.429688 510.224141,217.429688 C518.065938,217.429688 524.726094,213.455078 528.163594,207.385742 L528.378438,207.385742 L528.378438,216.194336 C528.378438,224.519531 522.309102,230.266602 512.318867,230.105469 C506.625508,229.998047 502.704609,227.957031 497.924336,222.693359 C496.474141,221.082031 495.561055,220.544922 494.003438,220.544922 C491.532734,220.544922 489.813984,222.209961 489.813984,224.573242 C489.813984,225.808594 490.13625,226.882812 490.888203,228.064453 C494.809102,234.241211 502.597188,237.947266 511.942891,238.054688 C527.841328,238.21582 537.724141,229.192383 537.724141,215.87207 Z M512.104024,209.211914 C502.489766,209.211914 496.205586,201.370117 496.205586,188.855469 C496.205586,176.34082 502.489766,168.391602 512.104024,168.391602 C521.825703,168.391602 528.378438,176.555664 528.378438,188.855469 C528.378438,201.155273 521.825703,209.211914 512.104024,209.211914 Z" id="log" fill="#5C5C5C" fill-rule="nonzero"></path>
        </g>
    </g>
</svg>